# xmcd
#
# Track frame offsets: 
#        150
#        11936
#        32410
#        56318
#        75576
#        86938
#        101629
#        122401
#        143039
#        157468
#        174016
#        187231
#        201770
#        214148
#        224681
#
# Disc length: 3089 seconds
#
# Revision: 0
# Processed by: cddbd v1.5.2PL0 Copyright (c) Steve Scherf et al.
# Submitted via: ExactAudioCopy v0.95a3
#
DISCID=d70c0f0f
DTITLE=Alice Gerrard - Gerrard: Calling Me Home
DYEAR=2004
DGENRE=Country
TTITLE0=Calling Me Home
TTITLE1=Farewell My Home
TTITLE2=Girl of Constant Sorrow
TTITLE3=Old Virginia Hills
TTITLE4=Galax Waltz
TTITLE5=When I Stop Dreaming
TTITLE6=The Little Dove
TTITLE7=When My Ship Came Back to Shore
TTITLE8=Memories of Mother and Dad
TTITLE9=Weary Blues From Waiting
TTITLE10=Another Cheater (Just Lost the Game Again)
TTITLE11=worn Out Getting Wise
TTITLE12=If I Play With Fire
TTITLE13=Skipping School
TTITLE14=Long, Lonesome Way
EXTD=
EXTT0=
EXTT1=
EXTT2=
EXTT3=
EXTT4=
EXTT5=
EXTT6=
EXTT7=
EXTT8=
EXTT9=
EXTT10=
EXTT11=
EXTT12=
EXTT13=
EXTT14=
PLAYORDER=
